<?xml version="1.0" encoding="UTF-8" standalone="no"?>
<svg width="512px" height="512px" viewBox="0 0 512 512" version="1.1" xmlns="http://www.w3.org/2000/svg" xmlns:xlink="http://www.w3.org/1999/xlink" xmlns:sketch="http://www.bohemiancoding.com/sketch/ns">
    <!-- Generator: Sketch 3.0.2 (7799) - http://www.bohemiancoding.com/sketch -->
    <title>achievement_played500</title>
    <description>Created with Sketch.</description>
    <defs></defs>
    <g id="Page-1" stroke="none" stroke-width="1" fill="none" fill-rule="evenodd" sketch:type="MSPage">
        <g id="achievement_played500" sketch:type="MSLayerGroup">
            <circle id="sameColor" fill="#000000" sketch:type="MSShapeGroup" cx="256" cy="256" r="256"></circle>
            <path d="M69.825,265.855 C67.3683211,265.184997 65.4141739,263.900843 63.9625,262.0025 C62.5108261,260.104157 61.785,257.926679 61.785,255.47 L61.785,159.66 C61.785,156.533318 62.78999,153.96501 64.8,151.955 C66.8100101,149.94499 69.3783177,148.94 72.505,148.94 L142.185,148.94 C145.311682,148.94 147.87999,149.94499 149.89,151.955 C151.90001,153.96501 152.905,156.533318 152.905,159.66 C152.905,162.786682 151.90001,165.35499 149.89,167.365 C147.87999,169.37501 145.311682,170.38 142.185,170.38 L83.225,170.38 L83.225,230.68 C94.8383914,224.426635 107.233267,222.974983 120.41,226.325 C131.800057,229.451682 140.956632,235.537455 147.88,244.5825 C154.803368,253.627545 158.265,263.956609 158.265,275.57 L158.265,312.42 C158.265,324.033391 154.803368,334.362455 147.88,343.4075 C140.956632,352.452545 131.800057,358.538318 120.41,361.665 C114.826639,363.228341 109.243361,363.786669 103.66,363.34 C98.0766388,362.893331 92.7725251,361.609177 87.7475,359.4875 C82.7224749,357.365823 78.0883546,354.518351 73.845,350.945 C69.6016455,347.371649 66.0283479,343.016692 63.125,337.88 C61.7849933,335.423321 61.5058294,332.743348 62.2875,329.84 C63.0691706,326.936652 64.6883211,324.703341 67.145,323.14 C69.601679,321.799993 72.2816522,321.520829 75.185,322.3025 C78.0883479,323.084171 80.3216589,324.703321 81.885,327.16 C85.2350168,332.966696 89.9808026,337.154154 96.1225,339.7225 C102.264197,342.290846 108.573301,342.681676 115.05,340.895 C121.526699,339.108324 126.77498,335.59086 130.795,330.3425 C134.81502,325.09414 136.825,319.120033 136.825,312.42 L136.825,275.57 C136.825,268.869966 134.81502,262.89586 130.795,257.6475 C126.77498,252.39914 121.526699,248.881676 115.05,247.095 C108.573301,245.308324 102.264197,245.699154 96.1225,248.2675 C89.9808026,250.835846 85.2350168,255.023304 81.885,260.83 C80.7683278,263.063344 79.0933445,264.626662 76.86,265.52 C74.6266555,266.413338 72.281679,266.525003 69.825,265.855 Z M247.04,363.34 C239.893298,363.34 233.249197,362.000013 227.1075,359.32 C220.965803,356.639987 215.605856,353.010856 211.0275,348.4325 C206.449144,343.854144 202.820013,338.494197 200.14,332.3525 C197.459987,326.210803 196.12,319.566702 196.12,312.42 L196.12,198.52 C196.12,191.596632 197.459987,185.008365 200.14,178.755 C202.820013,172.501635 206.449144,167.085856 211.0275,162.5075 C215.605856,157.929144 220.965803,154.300013 227.1075,151.62 C233.249197,148.939987 239.893298,147.6 247.04,147.6 C253.963368,147.6 260.495803,148.939987 266.6375,151.62 C272.779197,154.300013 278.194977,157.929144 282.885,162.5075 C287.575023,167.085856 291.259987,172.501635 293.94,178.755 C296.620013,185.008365 297.96,191.596632 297.96,198.52 L297.96,312.42 C297.96,319.566702 296.620013,326.210803 293.94,332.3525 C291.259987,338.494197 287.575023,343.854144 282.885,348.4325 C278.194977,353.010856 272.779197,356.639987 266.6375,359.32 C260.495803,362.000013 253.963368,363.34 247.04,363.34 Z M247.04,169.04 C238.776625,169.04 231.797528,171.943304 226.1025,177.75 C220.407472,183.556696 217.56,190.47996 217.56,198.52 L217.56,312.42 C217.56,320.683375 220.407472,327.662472 226.1025,333.3575 C231.797528,339.052528 238.776625,341.9 247.04,341.9 C255.08004,341.9 262.003304,339.052528 267.81,333.3575 C273.616696,327.662472 276.52,320.683375 276.52,312.42 L276.52,198.52 C276.52,194.49998 275.738341,190.703351 274.175,187.13 C272.611659,183.556649 270.490013,180.430013 267.81,177.75 C265.129987,175.069987 262.003351,172.948341 258.43,171.385 C254.856649,169.821659 251.06002,169.04 247.04,169.04 Z M386.4,363.34 C379.253298,363.34 372.609197,362.000013 366.4675,359.32 C360.325803,356.639987 354.965856,353.010856 350.3875,348.4325 C345.809144,343.854144 342.180013,338.494197 339.5,332.3525 C336.819987,326.210803 335.48,319.566702 335.48,312.42 L335.48,198.52 C335.48,191.596632 336.819987,185.008365 339.5,178.755 C342.180013,172.501635 345.809144,167.085856 350.3875,162.5075 C354.965856,157.929144 360.325803,154.300013 366.4675,151.62 C372.609197,148.939987 379.253298,147.6 386.4,147.6 C393.323368,147.6 399.855803,148.939987 405.9975,151.62 C412.139197,154.300013 417.554977,157.929144 422.245,162.5075 C426.935023,167.085856 430.619987,172.501635 433.3,178.755 C435.980013,185.008365 437.32,191.596632 437.32,198.52 L437.32,312.42 C437.32,319.566702 435.980013,326.210803 433.3,332.3525 C430.619987,338.494197 426.935023,343.854144 422.245,348.4325 C417.554977,353.010856 412.139197,356.639987 405.9975,359.32 C399.855803,362.000013 393.323368,363.34 386.4,363.34 Z M386.4,169.04 C378.136625,169.04 371.157528,171.943304 365.4625,177.75 C359.767472,183.556696 356.92,190.47996 356.92,198.52 L356.92,312.42 C356.92,320.683375 359.767472,327.662472 365.4625,333.3575 C371.157528,339.052528 378.136625,341.9 386.4,341.9 C394.44004,341.9 401.363304,339.052528 407.17,333.3575 C412.976696,327.662472 415.88,320.683375 415.88,312.42 L415.88,198.52 C415.88,194.49998 415.098341,190.703351 413.535,187.13 C411.971659,183.556649 409.850013,180.430013 407.17,177.75 C404.489987,175.069987 401.363351,172.948341 397.79,171.385 C394.216649,169.821659 390.42002,169.04 386.4,169.04 Z" id="500" fill="#F8FF00" sketch:type="MSShapeGroup"></path>
        </g>
    </g>
</svg>