<?xml version="1.0" encoding="UTF-8" standalone="no"?>
<svg width="1024px" height="1024px" viewBox="0 0 1024 1024" version="1.1" xmlns="http://www.w3.org/2000/svg" xmlns:xlink="http://www.w3.org/1999/xlink" xmlns:sketch="http://www.bohemiancoding.com/sketch/ns">
    <!-- Generator: Sketch 3.0.2 (7799) - http://www.bohemiancoding.com/sketch -->
    <title>icon_store</title>
    <description>Created with Sketch.</description>
    <defs></defs>
    <g id="Page-1" stroke="none" stroke-width="1" fill="none" fill-rule="evenodd" sketch:type="MSPage">
        <g id="icon_store" sketch:type="MSLayerGroup">
            <rect id="Rectangle-9" fill="#000000" sketch:type="MSShapeGroup" x="0" y="0" width="1024" height="1024" rx="90"></rect>
            <g id="cmyk_graph-3" transform="translate(85.333333, 110.933333)" sketch:type="MSShapeGroup">
                <ellipse id="Oval-tc" fill="#00FFFF" cx="426.533333" cy="277.333333" rx="281.466667" ry="277.333333"></ellipse>
                <ellipse id="Oval-bl" fill="#FF00FF" cx="285.866667" cy="524.8" rx="285.866667" ry="277.333333"></ellipse>
                <ellipse id="Oval-br" fill="#F8FF00" cx="567.466667" cy="524.8" rx="285.866667" ry="277.333333"></ellipse>
                <path d="M708.197111,283.559113 C704.835866,433.850857 580.07735,554.666667 426.666667,554.666667 C373.047165,554.666667 322.927854,539.907627 280.268711,514.289523 C285.979552,365.992848 412.033979,247.466667 566.7,247.466667 C618.159073,247.466667 666.450941,260.587106 708.19712,283.559118 Z" id="Oval-tr" stroke="#00FF00" fill="#00FF00"></path>
                <path d="M572.804021,514.445831 C530.201421,539.967652 480.177022,554.666667 426.666667,554.666667 C273.243494,554.666667 148.477154,433.831185 145.135404,283.522407 C186.846891,260.57313 235.092266,247.466667 286.5,247.466667 C441.148386,247.466667 567.17839,366.076143 572.804021,514.445831 Z" id="Oval-tl" stroke="#0000FF" fill="#0000FF"></path>
                <path d="M426.666667,766.216438 C513.2875,718.565713 571.733333,628.304492 571.733333,524.8 C571.733333,421.295508 513.2875,331.034287 426.666667,283.383562 C340.045833,331.034287 281.6,421.295508 281.6,524.8 C281.6,628.304492 340.045833,718.565713 426.666667,766.216438 Z" id="Oval-bc" fill="#FF0000"></path>
                <path d="M281.813148,513.990632 C325.227685,539.792795 376.290074,554.666667 430.933333,554.666667 C482.096842,554.666667 530.121027,541.626851 571.66745,518.786003 L571.66745,518.786003 C569.453044,417.806398 511.605597,330.109061 426.666667,283.383562 C343.075119,329.367856 285.72237,415.034428 281.813148,513.990632 Z" id="Oval-ct" stroke="#000000" fill="#000000"></path>
            </g>
        </g>
    </g>
</svg>